# xmcd CD database file generated by OrangeCD 5.2
#
# Track frame offsets:
#	183
#	38890
#	58053
#	146263
#	170125
#	259283
#	288900
#	320433
#
# Disc length: 4370 seconds
#
# Revision: 1
# Processed by: cddbd v1.5.1PL0 Copyright (c) Steve Scherf et al.
# Submitted via: OrangeCD 5.2
#
DISCID=77111008
DTITLE=Jimi Hendrix - Drone Blues
DYEAR=1993
DGENRE=Rock
TTITLE0=Drone Blues
TTITLE1=Lord I Sing The Blues For Me And You
TTITLE2=Traffic Jam
TTITLE3=Once I Had I Woman
TTITLE4=B.B. King Jam
TTITLE5=Country Blues
TTITLE6=Everything's Gonna Be All Right
TTITLE7=Further On Up The Road
EXTD=Outtakes 1969-70 plus Cafe Au Go-Go, New York City 17.03.68 - Generation C
EXTD=lub, New York City 15.04.68 [Jam with B.B.King] - Jam with Traffic, Electr
EXTD=ic Lady Studio, New York City 15.06.70
EXTT0=
EXTT1=
EXTT2=
EXTT3=
EXTT4=
EXTT5=
EXTT6=
EXTT7=
PLAYORDER=
